<?xml version="1.0" encoding="UTF-8"?>
<svg id="_レイヤー_1" data-name="レイヤー_1" xmlns="http://www.w3.org/2000/svg" viewBox="0 0 1366 768">
  <defs>
    <style>
      .cls-1 {
        fill: #fff;
      }
    </style>
  </defs>
  <g>
    <path d="M121.31,371.1v11.69l-12.26,1.06c.12,8.32.27,17.63.42,25.64.14,8.91-7.35,11.32-15.92,12.19l-7.04-3.52-2.18-7.75.66-.19,2.02,7.16c8.28-.7,15.3-3.48,14.72-12.12-.19-7.94-.29-17.29-.42-25.57,4.51-.36,8.37-.79,12.26-1.06v-10.28l-.07-.69.77-.08,7.04,3.52Z"/>
    <path class="cls-1" d="M113.56,368.35v10.28c-3.89.27-7.75.69-12.26,1.06.13,8.28.23,17.63.42,25.57.58,8.64-6.45,11.41-14.72,12.12l-2.02-7.16-1.36-4.81c3.66.08,8.81,1.47,8.52-3.31l-.21-15.5c-5.65,10.2-12.36,18.37-22.19,25.85l-9.37-7.11c10.1-5.91,18.74-14.62,23.74-24.23-6.49.55-14.12,1.29-19.94,1.97l-.14-10.28c8.51-.58,18.68-1.33,27.61-2.18-.09-3.67-.22-7.54-.42-11.06l9.93-.49v10.57c4.19-.41,8.56-.82,12.4-1.27Z"/>
    <path d="M113.49,367.66l.07.69c-3.84.45-8.21.86-12.4,1.27v-10.57l-9.93.49c.2,3.52.33,7.39.42,11.06-8.93.86-19.1,1.61-27.61,2.18l.14,10.28c5.81-.68,13.44-1.42,19.94-1.97-5,9.62-13.64,18.33-23.74,24.23l9.37,7.11-.19.39c-3.98-2.59-8.1-5.74-10.45-7.64,8.51-4.92,15.71-11.37,20.99-18.81l-9.51.99-7.04-3.52-.21-11.76c8.65-.53,18.59-1.37,27.61-2.11-.09-3.77-.23-7.36-.42-11.13l11.34-.49,7.04,3.52v6.27l4.58-.48Z"/>
    <path d="M92.15,402.09c.28,4.78-4.86,3.39-8.52,3.31l1.36,4.81-.66.19c-2.34,2.24-4.84,4.43-7.47,6.41-1.96-.68-4.59-2.21-7.3-3.98l.19-.39c9.83-7.48,16.54-15.65,22.19-25.85l.21,15.5Z"/>
  </g>
  <g>
    <path d="M191.19,382.86v12.61c-16.48,1.33-35.27,2.84-51.71,4.51l-7.04-3.52v-12.61c16.46-1.17,35.26-2.84,51.71-4.51l7.04,3.52ZM183.45,391.32v-11.2c-15.96,1.5-34.32,3.38-50.3,4.37v11.2c15.9-1.63,34.33-3.11,50.3-4.37Z"/>
    <path class="cls-1" d="M183.45,380.12v11.2c-15.97,1.26-34.4,2.74-50.3,4.37v-11.2c15.98-.99,34.34-2.86,50.3-4.37Z"/>
  </g>
  <g>
    <path d="M267.63,364.55l-5.42,4.86-.77-.07-2.11,1.9,1.55.77c-2.14,13.82,4.03,39.95-11.76,46.14-6.77,2.35-9.89,2.36-16.7-1.76l-.15-.61.65-.16c25.17.65,18.23-29.67,20.15-46.28-1.24.13-2.51.26-3.79.39v-.18s4.43-4.02,4.43-4.02c-1.66-2.29-3.65-4.71-5.64-6.69l-4.23,3.59-.45-.53,4.74-4.05.7.07,5.14-4.23c5.28,2,10.45,6.11,13.67,10.85ZM255.23,364.9l4.37-3.94c-1.56-2.02-3.86-4.52-5.71-6.27l-4.3,3.52c1.98,1.97,3.99,4.5,5.64,6.69Z"/>
    <path class="cls-1" d="M259.6,360.95l-4.37,3.94c-1.64-2.2-3.65-4.72-5.64-6.69l4.3-3.52c1.84,1.75,4.14,4.25,5.71,6.27Z"/>
    <path class="cls-1" d="M253.68,365.53l-4.44,4.02c-1.49-2.34-3.6-5-5.42-7.11l4.23-3.59c1.98,1.98,3.98,4.4,5.64,6.69Z"/>
    <path class="cls-1" d="M253.05,369.34c-1.91,16.61,5.03,46.93-20.15,46.28l-3.1-12.19c3.56-.16,8.02.56,10.46-1.55,3.1-5.81,1.87-14.75,2.43-21.2-3.36.21-7,.59-10.57.92-1.95,14.84-7.93,28.6-21.13,36.91l-8.24-8.38c11.62-4.98,17.72-15.69,19.72-27.68-4.68.35-9.83,1.01-14.37,1.48l-.28-10.64c4.91-.32,10.27-.77,15.57-1.2.21-3.78-.06-7.61-.28-11.41l10.5-.56-.42,11.06c5.24-.45,10.78-.92,16.07-1.44,1.28-.13,2.55-.26,3.79-.39Z"/>
    <path d="M249.24,369.55v.18c-5.28.53-10.83,1-16.06,1.44l.42-11.06-10.5.56c.22,3.8.49,7.63.28,11.41-5.3.42-10.66.88-15.57,1.2l.28,10.64c4.54-.47,9.69-1.13,14.37-1.48-2.01,12-8.1,22.71-19.72,27.68l-.43.42-.69-.7c10.26-4.51,15.99-12.13,19.02-22.26l-6.13.63-7.11-3.52-.28-12.12c5.11-.29,10.24-.79,15.57-1.13.22-3.9-.08-7.49-.28-11.48l11.98-.63,7.04,3.52-.35,6.9,7.04-.63c-1.68-2.42-3.38-4.56-5.28-6.76l.54-.46.45.53c1.82,2.11,3.93,4.78,5.42,7.11Z"/>
    <path d="M242.69,380.68c-.56,6.46.67,15.39-2.43,21.2-2.44,2.11-6.9,1.39-10.46,1.55l3.1,12.19-.65.16-1.33-5.24c-3.46,4.85-7.77,8.98-12.96,12.4l-7.04-3.52-8.61-8.88.43-.42,8.24,8.38c13.21-8.31,19.18-22.07,21.13-36.91,3.57-.33,7.21-.7,10.57-.92ZM235.22,402.66c8.77.41,5.58-11.34,6.62-17.05-.7,0-1.33.06-2.04.14-.86,5.89-2.17,11.54-4.58,16.91Z"/>
  </g>
  <g>
    <path d="M332.01,400.12v12.33c-16.27,1.09-35.49,2.7-51.71,4.44l-7.04-3.45v-12.33c16.28-1.1,35.49-2.47,51.71-4.51l7.04,3.52ZM324.27,408.29v-10.92c-15.72,1.91-34.51,3.37-50.3,4.37v10.92c15.71-1.77,34.52-3.35,50.3-4.37Z"/>
    <path d="M325.53,367.51v12.19c-12.15.8-26.58,1.87-38.67,3.31l-7.04-3.52v-12.19c12.19-.52,26.55-1.98,38.67-3.31l7.04,3.52ZM317.78,375.47v-10.71c-11.6,1.29-25.61,2.69-37.27,3.24v10.71c11.58-1.31,25.63-2.45,37.27-3.24Z"/>
    <path class="cls-1" d="M324.27,397.37v10.92c-15.78,1.02-34.59,2.59-50.3,4.37v-10.92c15.79-1,34.58-2.45,50.3-4.37Z"/>
    <path class="cls-1" d="M317.78,364.76v10.71c-11.64.79-25.69,1.93-37.27,3.24v-10.71c11.66-.55,25.67-1.95,37.27-3.24Z"/>
  </g>
  <g>
    <path d="M390.84,370.46l7.04,3.52c-1.09,21.5-10.06,41.12-31.14,49.24l-7.04-3.52-7.47-8.74c11.32-3.69,18.96-8.66,23.81-18.53l.56.27c-4.3,8.89-11.74,15.71-23.11,18.68l6.41,7.4c20.35-7.85,29.07-26.86,30.15-47.62l-8.66-.63-.68-.05c.01-.25.02-.48.05-.73l10.07.7Z"/>
    <path class="cls-1" d="M381.4,370.53l8.66.63c-1.08,20.76-9.8,39.77-30.15,47.62l-6.41-7.4c11.37-2.97,18.81-9.79,23.11-18.68,3.17-6.52,4.66-14.14,4.79-22.18Z"/>
    <path d="M380.72,370.49l.68.05c-.13,8.04-1.62,15.66-4.79,22.18l-.56-.27-4.44,1.69-2.82-1.41-9.09,4.58-7.04-3.52c-1.2-5.67-3.1-11.99-5.57-17.19l9.09-3.8,5.14,2.61-.7-2.04,9.58-2.96,7.04,3.52c.82,2.28,1.59,4.84,2.18,7.33.75-3.52,1.01-7.07,1.29-10.75ZM365.12,389.7l8.52-3.17c-.93-4.59-2.32-11.08-3.87-15.22l-8.24,2.54c1.73,4.74,2.99,10.77,3.59,15.85ZM353.15,392.72l8.1-4.09c-1.13-4.74-3.3-10.68-5.42-14.93l-7.82,3.31c2.14,4.33,4.25,10.93,5.14,15.71Z"/>
    <path class="cls-1" d="M373.65,386.53l-8.52,3.17c-.6-5.08-1.87-11.11-3.59-15.85l8.24-2.54c1.55,4.13,2.95,10.63,3.87,15.22Z"/>
    <path class="cls-1" d="M361.25,388.64l-8.1,4.09c-.89-4.78-3.01-11.38-5.14-15.71l7.82-3.31c2.13,4.25,4.3,10.19,5.42,14.93Z"/>
  </g>
  <g>
    <path d="M467.27,368.42l5.71,5.14c-5.47,22.61-17.22,40.8-39.24,49.45l-7.04-3.52-9.15-9.46.48-.47,8.81,9.09c21.45-8.44,32.96-26.36,38.25-48.4l-5.14-4.58-.08-.73.36-.05,7.04,3.52Z"/>
    <path class="cls-1" d="M459.94,365.67l5.14,4.58c-5.3,22.04-16.8,39.95-38.25,48.4l-8.81-9.09c17.12-4.05,30.51-16.07,34.8-32.62-5.51.4-9.85.97-15.5,1.69-3.93,6.23-9.13,11.68-15.22,16.34l-8.74-7.04c11.32-5.69,19.42-17.19,22.4-29.09l9.79,2.47c-.76,2.08-1.56,4.14-2.4,6.2,5.31-.49,11.82-1.2,16.77-1.83Z"/>
    <path d="M459.86,364.95l.08.73c-4.94.63-11.46,1.34-16.77,1.83.83-2.05,1.63-4.12,2.4-6.2l-9.79-2.47c-2.98,11.91-11.08,23.4-22.4,29.09l8.74,7.04c6.08-4.66,11.28-10.11,15.22-16.34,5.65-.72,9.99-1.29,15.5-1.69-4.29,16.54-17.68,28.57-34.8,32.62l-.48.47-.86-.89c15.63-3.87,27.83-12.88,33.6-26.98l-5.57.63c-4.05,6.4-9.24,11.69-15.57,16.55l-7.04-3.52-10-8.1c11.94-5.79,20.17-17.58,23.18-29.8l11.2,2.82,7.04,3.52c-.18.54-.38.99-.56,1.48l6.89-.8Z"/>
  </g>
  <g>
    <path d="M1313.03,382.02l7.04,9.93c-5.22,2.54-10.81,4.31-16.06,6.55v4.58c.85-.27,1.66-.6,2.45-.92l.31.76c-3.52,1.89-12.83,3.89-19.54,4.14l-.22-1.53,9.18-1.34c.11-3.31.05-6.52.07-9.72,5-2.1,10.88-4.02,15.71-6.27l-6.2-8.74c-2.1,1.24-4.39,2.37-6.68,3.44l-.29-.62c2.43-1.17,4.83-2.34,7.19-3.8l7.04,3.52Z"/>
    <path d="M1314.94,405.12l-.28,13.46c-13.91,2.18-38.56,6.66-44.11-8.68l.35-.13c.46,1.31,1.23,2.64,2.37,3.94,9.49,6.13,23.08,1.81,33.64.77l.21-11.76c-.11.07-.22.13-.34.2l-.31-.76c.47-.19.94-.38,1.42-.56l7.04,3.52Z"/>
    <path class="cls-1" d="M1305.78,379.48l6.2,8.74c-4.83,2.25-10.71,4.17-15.71,6.27-.02,3.21.04,6.41-.07,9.72l-9.18,1.34-.47.07c-.01-2.55.07-4.51.07-7.11-11.24,6.89-6.97,8.85.62,8.57,6.7-.26,16.01-2.25,19.54-4.14.12-.07.23-.13.34-.2l-.21,11.76c-10.56,1.03-24.15,5.35-33.64-.77-1.14-1.3-1.91-2.63-2.37-3.94-3.01-8.71,7.74-17.32,15.65-20.78-5.41-6.97-16.4,10.84-18.67,16.41l-7.96-7.47c5.27-6.3,9.6-13.29,13.1-20.43l-10.36,1.06-.35-10.5c4.63-.11,10.12-.55,15.08-1.06.89-2.68,1.57-5.14,2.04-7.4l10.14.63c-.62,1.87-1.31,3.7-1.9,5.49,4.5-.67,9.19-1.48,13.38-2.32l-.28,10.43c-5.76.76-10.92,1.61-17.19,2.25-.43,1.14-.97,2.22-1.48,3.24,4.95-2.4,12-.72,13.24,5.35,1.22-.59,2.49-1.17,3.75-1.77,2.29-1.07,4.58-2.2,6.68-3.44Z"/>
    <path d="M1308.88,366.03l-.35,11.91c-.92.14-1.76.27-2.56.39-3.86.59-6.74.99-11.32,1.51,1.74.42,3.12,1.24,4.16,2.47l.29.62c-1.26.6-2.52,1.19-3.75,1.77-1.24-6.07-8.29-7.75-13.24-5.35.5-1.02,1.04-2.1,1.48-3.24,6.27-.65,11.42-1.49,17.19-2.25l.28-10.43c-4.19.85-8.89,1.66-13.38,2.32.59-1.8,1.28-3.63,1.9-5.49l-10.14-.63c-.47,2.25-1.15,4.72-2.04,7.4-4.95.5-10.45.95-15.08,1.06l.35,10.5,10.36-1.06c-3.5,7.14-7.83,14.12-13.1,20.43l7.96,7.47c2.27-5.58,13.26-23.39,18.67-16.41-7.91,3.46-18.66,12.07-15.65,20.78l-.35.13c-.28-.76-.52-1.59-.69-2.45-1.1.07-9.9-8.71-10.85-9.51,4.06-4.93,7.36-9.79,10.43-15.08h-.35l-7.04-3.52-.42-11.98c4.93-.08,10.12-.55,15.22-.99.76-2.54,1.5-4.87,2.04-7.54l11.69.7,7.04,3.52c0,.09-.08.19-.07.28l4.3-.85,7.04,3.52Z"/>
    <path d="M1287.02,405.55l.22,1.53c-7.6.28-11.86-1.68-.62-8.57,0,2.61-.08,4.57-.07,7.11l.47-.07Z"/>
    <path d="M1250.27,389.55v11.06l-3.45.35c-.05,13.3,2.54,20.96-14.44,21.42l-7.04-3.52-.85-2.54.6-.2.67,1.96c16.25-.01,13.11-9.19,13.31-21.27l3.45-.35v-9.65l-3.45.35v-3.31l3.1-.28v-9.72l-10.64.92v-2.82l9.79-.85v-9.65l-.06-.72.76-.06,7.04,3.52v11.06l-1.62.14,2.47,1.2v11.13l-3.1.28,3.45,1.55Z"/>
    <path class="cls-1" d="M1242.52,386.81v9.65l-3.45.35c-.2,12.08,2.94,21.26-13.31,21.27l-.67-1.96-2.78-8.11-5.28,4.23c-2.1-3.87-3.57-6.7-5.85-9.93l5.14-3.52-5.57.49v-9.65l18.74-1.69v-3.31l-19.09,1.69v-9.72l11.55-.99v-2.82l-10.57.92v-9.65l10.57-.92v-4.86l9.58-.85v4.86l9.79-.85v9.65l-9.79.85v2.82l10.64-.92v9.72l-3.1.28v3.31l3.45-.35ZM1229.49,397.59l-9.16.85c1.62,2.22,2.96,4.41,4.79,7.19l-2.25,1.83c9.51-.26,5.98-2.48,6.62-9.86Z"/>
    <path d="M1241.26,360.73l.06.72-9.79.85v-4.86l-9.58.85v4.86l-10.57.92v9.65l10.57-.92v2.82l-11.55.99v9.72l19.09-1.69v3.31l-18.74,1.69v9.65l5.57-.49-5.14,3.52c2.28,3.23,3.75,6.06,5.85,9.93l-.35,1.06v3.66l-10.14.92v4.3l-9.51.85-7.04-3.52v-55.37l19.65-1.76,1.9.99,9.72-.85v-4.86l10.99-.99,7.04,3.52v.7l1.98-.15ZM1208.92,412.87v-49.73l-18.25,1.62v53.96l8.1-.7v-4.23l10.14-.92Z"/>
    <path d="M1220.33,398.43l9.16-.85c-.65,7.39,2.89,9.6-6.62,9.86l2.25-1.83c-1.83-2.77-3.17-4.97-4.79-7.19Z"/>
    <polygon points="1222.3 408.01 1225.08 416.12 1224.48 416.32 1223.85 416.82 1216.66 413.29 1217.02 412.24 1222.3 408.01"/>
    <path class="cls-1" d="M1208.92,363.14v49.73l-10.14.92v4.23l-8.1.7v-53.96l18.25-1.62ZM1200.81,404.21v-11.34l-2.04.21v11.34l2.04-.21ZM1200.81,383.5v-10.28l-2.04.21v10.28l2.04-.21Z"/>
    <polygon points="1200.81 392.87 1200.81 404.21 1198.77 404.42 1198.77 393.08 1200.81 392.87"/>
    <polygon points="1200.81 373.21 1200.81 383.5 1198.77 383.71 1198.77 373.42 1200.81 373.21"/>
    <path d="M1174.54,403.64l-.14,13.24c-15.33,2.09-34.06,7.01-47.06-2.71-4.54-4.5-5.96-10.14-5.07-15.56l.6.09c-.74,4.56.32,9.3,3.87,13.42,11.11,8.32,27.12,2.23,39.91.67l.07-11.69c-12.02,3.32-20.59,4.5-26.15,4.23v-.21c8.41.05,17.66-2.67,26.92-5l7.04,3.52Z"/>
    <path d="M1170.8,373.28l3.38,12.47c-9.23,4.14-33.77,7.21-33.6,19.37v.21c-17.85-.82-4.56-16.44,25.64-23.53l-3.03-11.06c-3.3,1.42-6.75,2.79-10.17,4.16l-.26-.63,10.99-4.51,7.04,3.52Z"/>
    <path class="cls-1" d="M1166.72,401.11l-.07,11.69c-12.79,1.56-28.8,7.66-39.91-.67-3.56-4.12-4.61-8.86-3.87-13.42,1.16-7.04,6.63-13.61,13.84-16.63-2.54-6.2-2.14-13.85-2.25-21.49l10.78-.92c-.36,5.62-.65,13.54.92,18.03,2.22-.94,4.54-1.88,6.88-2.81h0c3.42-1.37,6.87-2.75,10.17-4.17l3.03,11.06c-30.2,7.09-43.49,22.71-25.65,23.53,5.55.27,14.12-.9,26.15-4.23Z"/>
    <path d="M1146.01,358.84l7.04,3.52c-.21,4.21-.52,7.89-.28,11.91l.26.63h0c-2.34.94-4.66,1.88-6.88,2.82-1.56-4.5-1.28-12.41-.92-18.03l-10.78.92c.12,7.63-.28,15.29,2.25,21.49-7.21,3.02-12.68,9.58-13.84,16.63l-.6-.09c1.16-7.07,6.28-13.74,13.53-16.88-2.29-6.27-1.89-14.36-1.97-21.84l12.19-1.06Z"/>
    <path d="M1110.29,383.57l-6.41,12.4-5.57-2.75-1.76-1.9,5.71-10.92c-7.56-4.09-14.39-11.75-16.84-20.01l-9.37,5.14-.35-.62,10.21-5.65,7.04,3.52c2.43,8.86,9.25,16.5,17.33,20.78Z"/>
    <path class="cls-1" d="M1102.26,380.4l-5.71,10.92c-2.18-1.91-4.76-4.47-6.62-6.34,5.71,49.3-55.99,38.39-34.13-2.68,1.03-1.95,2.27-3.97,3.7-6.06-3.83,1.07-5.35,1.3-9.16,2.11l-1.13-11.2c6.52-.38,14.1-1.86,20.43-3.87l5.07,8.88c-41.97,45.11,26.72,50.29,1.34-6.62l9.37-5.14c2.44,8.25,9.28,15.92,16.84,20.01Z"/>
    <path d="M1098.32,393.22c1.23,47.14-66.23,30.95-43.04-11.2l.53.28c-21.86,41.07,39.84,51.98,34.13,2.68,1.87,1.87,4.44,4.43,6.62,6.34l1.76,1.9Z"/>
    <path d="M1076.06,365.53c25.38,56.91-43.31,51.73-1.34,6.62l-5.07-8.88c-6.33,2.02-13.91,3.5-20.43,3.87l1.13,11.2-.65.07-1.26-11.98c6.67-.28,15-1.87,21.56-4.09l5.21,2.82.49-.27.35.62ZM1069.65,406.32c13.07-.95,11.98-17.69,10-27.61-6.96,7.48-13.57,18.19-10,27.61Z"/>
    <path d="M1059.5,376.24c-1.43,2.09-2.67,4.11-3.7,6.06l-.53-.28-5.49-2.82-.08-.77.65-.07c3.8-.81,5.33-1.04,9.16-2.11Z"/>
    <path d="M1028.96,370.22c15.49,16.2,5.39,45.26-16.45,49.56l-7.04-3.59-1.62-2.68.62-.38,1.35,2.21c17.02-2.98,26.85-22.57,21.66-38.36-7.84-24.15-43.55-16.05-49.03,5.85-2.75,5.95-2.98,17.93.4,25.33l-.28.14c-3.65-7.82-4.43-18.25-.82-25.71,6.06-21.56,36.24-28.32,51.21-12.36Z"/>
    <path class="cls-1" d="M1027.48,376.98c5.19,15.79-4.64,35.38-21.66,38.36l-1.35-2.21-4.71-7.73c17.85.95,28.01-28.1,8.52-33.04-2.25,10.3-4.04,23.14-9.43,32.77-1.51,2.7-3.3,5.14-5.47,7.21-7.27,4.37-11.95,1.42-14.54-4.19-3.38-7.4-3.15-19.37-.4-25.33,5.48-21.9,41.19-30,49.03-5.85ZM988.21,402.45c6.97-6.29,7.88-19.75,10.07-29.02-9.73,3.86-16.82,20.86-10.07,29.02Z"/>
    <path d="M1008.29,372.37c19.49,4.94,9.32,33.99-8.52,33.04l-.9-.27c5.39-9.63,7.17-22.47,9.43-32.77ZM1009.06,402.02c8.36-4.87,12.37-16.9,6.2-24.94-1.2,8-3.3,17.46-6.2,24.94Z"/>
    <path d="M999.76,405.4l4.71,7.73-.62.38c-11.06,10.63-20.57,4.88-25.28-5.21l.28-.14c2.58,5.61,7.27,8.56,14.54,4.19,2.17-2.07,3.96-4.51,5.47-7.21l.9.27Z"/>
    <path d="M998.28,373.42c-2.2,9.28-3.1,22.73-10.07,29.02-6.75-8.16.34-25.16,10.07-29.02Z"/>
    <path d="M956.72,387.72l9.51,8.88c-6.03,19.13-35.14,37.5-49.61,16.91-5.79-14.62-.88-33.74-2.13-50.02l.62-.06c1.28,15.38-3.01,33.46,1.47,47.57,13,17.61,36.65-2.58,41.75-17.72l-8.31-7.75c-.83,2.96-2.61,6.83-5,10.44l-.56-.38c2.34-3.59,4.07-7.63,5.21-11.4l7.04,3.52Z"/>
    <path class="cls-1" d="M950.03,385.54l8.31,7.75c-5.1,15.13-28.75,35.33-41.75,17.72-4.47-14.11-.19-32.19-1.47-47.57-.02-.41-.07-.81-.11-1.21l10.57-.7c-.55,10.56-.93,22.86-1.09,33.32.04,4-.72,7.11,1.3,9.91,7.03,4.81,14.39-1.42,19.23-8.77,2.4-3.6,4.17-7.48,5-10.44Z"/>
    <path d="M944.46,395.6l.56.38c-4.84,7.35-12.2,13.58-19.23,8.77-2.02-2.79-1.27-5.91-1.3-9.91.16-10.46.54-22.77,1.09-33.32l-10.57.7c.04.4.08.8.11,1.21l-.62.06c-.06-.67-.12-1.31-.19-1.97l12.05-.77,7.04,3.52c-.56,13.29-1.59,28.26-.99,41.28,5.01-1.5,9.03-5.34,12.05-9.94Z"/>
    <path d="M898.11,415.13l-7.26,5.14-2.54-1.27c-2.01,3.23-5.65,1.96-9.23,2.68-4.88.2-12.19,2.05-16.7-.42-.29.69-.4,1.4-.92,1.9-.41-.22-7.68-3.75-7.75-4.02l.42-.56c1.35-2.25,2.25-4.65,2.68-7.19-.29,4.17.34,7.76,4.97,6.94.69-.01,9.26-.81,10.18-.88,6.08.06,10-.92,9.86-7.96.72,2.3,1.67,3.97,2.32,6.06l6.06-4.3c-1-3.15-1.97-5.54-3.38-8.38,2.92-3.91,1.02-15.17,1.55-20.08l-1.35.12-.06-.75,2.82-9.09c-5.08-.26-11.35-1.17-15.92-3.03l14.58-1.27v-8.81l-17.19,1.48v-3.24l-10.78.99v3.24l-18.03,1.55v8.88c-.53-1.96-1.39-3.4-2.47-5.49l-3.94,9.3c1.6,3.15,3.05,6.27,4.37,9.37l1.97-2.96v5c-2.11,1.1-3.9,1.75-6.34,2.61l-.63.08-.07-.58c2.27-.79,3.82-1.36,5.85-2.32l-.85-.42c-1.6-3.62-3.29-7.19-5.07-10.71l4.65-10.99,1.83.92v-3.31l18.03-1.55v-3.24l12.19-1.13,5.64,2.82,11.55-1.06,7.04,3.52v10.21l-3.73.28,5.35,2.68-2.82,9.09,1.13.56c-.28,4.34.89,18.02-1.41,20.92,1.39,2.95,2.55,5.21,3.38,8.66Z"/>
    <path class="cls-1" d="M890.22,411.25l-6.06,4.3c-.66-2.09-1.61-3.76-2.32-6.06l-.99-2.68-.35-.85,2.47-1.62c-1.1.12-2.61.28-3.8.35l-1.27-4.09-5.07.42v-16.77l6.55-.56v11.41c1.29-.23,1.44-.23,1.48-1.55v-10.14l6.19-.52,1.35-.12c-.53,4.91,1.37,16.17-1.55,20.08,1.41,2.84,2.38,5.24,3.38,8.38Z"/>
    <path class="cls-1" d="M889.8,373.07l-2.82,9.09c-1.96-.39-3.97-.66-5.85-1.34v.99l-23.18,2.04v-.99c-1.64.82-3.33,1.75-5.07,2.61l-1.41-5.14c-.36,14.05.13,28.81-8.66,40.51l-6.76-8.52c2.72-4,5.01-9.4,5.57-13.88-.89,1.22-2.23,2.54-4.02,3.94l-1.55-11.69c2.44-.86,4.23-1.5,6.34-2.61v-5l-1.97,2.96c-1.31-3.1-2.77-6.22-4.37-9.37l3.94-9.3c1.08,2.09,1.94,3.53,2.47,5.49v-8.88l18.03-1.55v-3.24l10.78-.99v3.24l17.19-1.48v8.81l-14.58,1.27c4.57,1.86,10.84,2.77,15.92,3.03ZM865.78,377.58l6.55-.56c-.93-.49-2.56-1.59-3.31-2.25-.67.88-2.35,2.16-3.24,2.82ZM863.38,370.96l-11.91,1.06v4.3c4.7-1.26,8.84-3.16,11.91-5.35Z"/>
    <path d="M886.98,382.16l.06.75-6.19.52v10.14c-.04,1.31-.19,1.31-1.48,1.55v-11.41l-6.55.56v16.77l5.07-.42,1.27,4.09c1.2-.07,2.7-.23,3.8-.35l-2.47,1.62.35.85-6.13-2.18-.12-.07.61-1.06c-1.94-.85-3.51-1.46-4.72-1.83,1.62-3.5.54-13.26.85-17.19l-18.4,1.62-.06-.63c1.74-.86,3.43-1.78,5.07-2.61v.99l23.18-2.04v-.99c1.88.68,3.89.95,5.85,1.34Z"/>
    <path class="cls-1" d="M881.84,409.49c.14,7.04-3.78,8.02-9.86,7.96-.92.07-9.49.87-10.18.88-4.63.82-5.26-2.77-4.97-6.94-.42,2.54-1.33,4.93-2.68,7.19l-6.2-4.51c1.7-2.91,2.38-5.3,3.24-8.66l5.64,2.18v-2.18l7.54-.63c-.26,6.72-.12,4.86,5.71,4.58l1.9-.21c3.21.22,2.75-1.81,2.75-4.51l6.13,2.18.99,2.68Z"/>
    <path class="cls-1" d="M875.22,403.5l-.61,1.06-2.63,4.58-1.9.21c-1.62-.73-3.72-2.08-5.42-2.68l1.55-2.4c-.6.14-1.2.23-1.84.26-.18.02-.36.02-.55.02l-2.25-4.58c1.62-.23,2.41.06,2.32-1.34l-4.3.42v5.14l-7.47.63v-18.67l.83-.07,18.4-1.62c-.31,3.93.77,13.69-.85,17.19,1.21.38,2.78.99,4.72,1.83ZM863.88,395.61v-1.76l-4.3.42v1.76l4.3-.42ZM863.88,390.96v-1.69l-4.3.42v1.69l4.3-.42Z"/>
    <path d="M874.72,404.63c0,2.7.46,4.73-2.75,4.51l2.63-4.58.12.07Z"/>
    <path d="M872.33,377.02l-6.55.56c.89-.66,2.57-1.94,3.24-2.82.75.67,2.38,1.76,3.31,2.25Z"/>
    <path d="M866.2,404.28l-1.55,2.4c1.7.6,3.8,1.95,5.42,2.68-5.82.28-5.96,2.14-5.71-4.58v-.23c.63-.02,1.23-.12,1.83-.26Z"/>
    <path d="M864.36,404.54v.23s-7.53.63-7.53.63v2.18l-5.64-2.18c-.86,3.37-1.54,5.75-3.24,8.66l6.2,4.51-.42.56c-1.03,2.11-2.3,4.25-3.8,6.41l-7.04-3.52-7.68-9.72c1.66-2.44,3.06-5.04,4.09-7.68l-2.18-1.06-1.69-12.81.63-.08,1.55,11.69c1.78-1.41,3.12-2.72,4.02-3.94-.55,4.47-2.84,9.87-5.57,13.88l6.76,8.52c8.79-11.69,8.3-26.45,8.66-40.51l1.41,5.14.06.63-.83.07v18.67l7.47-.63v-5.14l4.3-.42c.08,1.4-.7,1.1-2.32,1.34l2.25,4.58c.19,0,.38,0,.55-.02Z"/>
    <polygon points="863.88 393.85 863.88 395.61 859.58 396.04 859.58 394.27 863.88 393.85"/>
    <polygon points="863.88 389.27 863.88 390.96 859.58 391.39 859.58 389.7 863.88 389.27"/>
    <path d="M851.48,372.01l11.91-1.06c-3.06,2.2-7.21,4.1-11.91,5.35v-4.3Z"/>
    <path d="M828.86,383.57l-10.36,10.85-7.04-3.52c-.16-.2-.33-.39-.48-.58l.48-.41,4.16-4.3c-1.84-2.13-3.9-4.21-5.99-6.14l1.06-1.12c2.09,1.81,4.23,4.05,6.06,6.06l4.09-4.3c-1.66-1.95-4.11-4.13-6.13-5.71l-.18-1.41c1.16-.14,2.35-.21,3.56-.21l-2.04-10.78c-15.03,3.15-33.25,5.49-48.61,7.04l-.63.06-.07-.76c15.84-1.54,34.47-3.91,49.95-7.26l7.04,3.52,2.32,12.33c-1.27.05-2.54.19-3.8.42,2.42,1.97,4.52,3.92,6.62,6.2Z"/>
    <path class="cls-1" d="M820.83,380.12l-4.09,4.3c-1.83-2.01-3.97-4.25-6.06-6.06l4.02-3.94c2.02,1.57,4.47,3.76,6.13,5.71Z"/>
    <path d="M820.48,405.48l-2.11,13.74c-19.75,3.83-44.38-8.16-39.73-28.26l.66.15c-3.48,15.18,10.48,28.04,31.4,23.95l1.83-12.05c-2.95.58-5.58.89-7.9,1l-.02-.59c2.85-.12,5.74-.66,8.84-1.47l7.04,3.52Z"/>
    <path class="cls-1" d="M816.04,362.01l2.04,10.78c-1.21,0-2.4.07-3.56.21-24.23,2.72-37.82,32.26-9.91,31.01,2.32-.11,4.95-.42,7.9-1l-1.83,12.05c-20.91,4.09-34.87-8.77-31.4-23.95,1.08-4.7,3.8-9.6,8.5-14.3-7,1.17-12.42,2.23-19.3,3.59l-1.06-11.34c15.36-1.55,33.58-3.9,48.61-7.04Z"/>
    <path class="cls-1" d="M815.62,385.61l-4.16,4.3c-1.89-2.3-3.87-4.49-5.99-6.55l4.02-4.02s.09.08.14.13c2.09,1.93,4.14,4.02,5.99,6.14Z"/>
    <path d="M814.53,373l.18,1.41-4.02,3.94-1.06,1.12s-.09-.08-.14-.13l-4.02,4.02c2.11,2.07,4.1,4.25,5.99,6.55l-.48.41c-1.89-2.2-3.69-4.24-5.79-6.26-5.94,4.32-11.66,12.41-6.62,18.95,2.03.36,4.02.49,6.02.41l.02.59c-27.91,1.26-14.32-28.28,9.91-31.01Z"/>
    <path d="M781.6,383.43l-6.69,1.34-7.04-3.52-1.06-12.13.63-.06,1.06,11.34c6.88-1.36,12.3-2.42,19.3-3.59-4.7,4.7-7.42,9.6-8.5,14.3l-.66-.15c.55-2.4,1.51-4.92,2.96-7.53Z"/>
    <path d="M750.95,404.63v10.36c-13.89.9-30.4,2.37-44.24,3.87l-7.04-3.52v-10.28c5.19-.55,11.41-.96,17.12-1.48.04-1.16.05-2.36.06-3.58h.69c0,1.44-.02,2.85-.05,4.21-5.67.58-12.13,1.01-17.12,1.48v8.95c13.35-1.46,29.43-2.86,42.83-3.8v-8.95l-9.45.89-.06-.68c3.48-.43,6.94-.66,10.21-.99l7.04,3.52Z"/>
    <path d="M746.8,375.96v10.36l-13.17,1.06c-.16,4.87-.06,9.86.07,14.72l.06.68-7.74.73c-.12-6.55-.35-13.67-.14-20.29,4.41-.39,9.22-.81,13.17-1.06v-8.95c-10.64,1.28-24.05,2.52-34.73,3.1v8.95c3.96-.56,8.83-.92,13.24-1.34-.02,5.12.02,10.8-.02,16.08h-.69c.02-3.67,0-7.54.01-11.08l-6.2.63-7.04-3.52v-10.36c11.19-.7,24.97-1.89,36.14-3.24l7.04,3.52Z"/>
    <path class="cls-1" d="M743.2,401.88v8.95c-13.4.94-29.48,2.35-42.83,3.8v-8.95c4.99-.47,11.45-.9,17.12-1.48.02-1.36.05-2.77.05-4.2.05-5.28,0-10.97.02-16.08-4.41.42-9.29.77-13.24,1.34v-8.95c10.68-.58,24.09-1.82,34.73-3.1v8.95c-3.96.25-8.76.67-13.17,1.06-.21,6.62.02,13.74.14,20.29l7.74-.73,9.45-.89Z"/>
    <path d="M670.43,361.45c3.63,1.5,9.98,5.33,12.89,7.96-3.31,24.76-12.62,42.77-35.72,52.06l-7.04-3.52-8.5-9.08.47-.43,8.17,8.66c22.44-9.01,31.61-26.79,34.8-50.86l-5.28-4.02c-13.14,1.61-28.59,2.91-41.77,3.73l.14,11.2h-.65s-.2-11.91-.2-11.91c13.5-.79,29.25-2.1,42.69-3.8Z"/>
    <path class="cls-1" d="M670.22,362.22l5.28,4.02c-3.19,24.07-12.36,41.86-34.8,50.86l-8.17-8.66c16.92-4.57,29.41-17.99,31.7-35.08-11.13.97-24.56,2.21-35.65,3.8l-.14-11.2c13.18-.82,28.64-2.13,41.77-3.73Z"/>
    <path d="M664.23,373.35c-2.29,17.09-14.78,30.51-31.7,35.08l-.47.43-.8-.86c15.72-4.44,27.22-14.75,31.21-29.66-8.74.88-18.9,1.88-27.47,3.1l-7.04-3.52v-.76s.63-.01.63-.01c11.08-1.6,24.51-2.83,35.65-3.8Z"/>
    <path d="M604.64,368.14l7.04,3.52c-2.11,13.81,3.94,39.92-11.69,46.21-6.77,2.35-9.89,2.36-16.7-1.76l-.16-.6.66-.18c25.09.6,18.21-29.77,20.08-46.35l-11.83,1.17-.07-.68,12.68-1.34Z"/>
    <path class="cls-1" d="M592.03,370.16l11.83-1.17c-1.87,16.58,5.01,46.95-20.08,46.35l-3.17-12.26c4.81-.18,10.79,1.3,11.69-4.16.94-5.65,1.09-12.93,1.2-18.6-3.3.21-6.97.59-10.5.92-1.96,14.81-7.87,28.71-21.13,36.91l-8.31-8.31c11.65-4.97,17.72-15.74,19.72-27.76-4.73.35-9.76.99-14.37,1.55l-.21-10.71c4.88-.21,10.25-.75,15.57-1.06,0-3.78.01-7.69-.35-11.48l10.5-.63c-.09,3.82-.25,7.37-.42,11.2l8.03-.8Z"/>
    <path d="M593.51,380.33c-.11,5.67-.26,12.95-1.2,18.6-.9,5.46-6.88,3.98-11.69,4.16l3.17,12.26-.66.18-1.39-5.25c-3.43,4.91-7.66,8.97-12.89,12.33l-7.04-3.52-8.68-8.81.43-.42,8.31,8.31c13.27-8.21,19.17-22.11,21.13-36.91,3.52-.33,7.2-.7,10.5-.92ZM586.11,402.38c8.76.26,5.47-11.41,6.62-17.12-.7,0-1.33.06-2.04.14-.86,5.88-2.17,11.61-4.58,16.98Z"/>
    <path d="M585.19,358.98l7.04,3.52c-.09,2.41-.19,4.67-.28,6.97l.07.68-8.03.8c.18-3.83.33-7.39.42-11.2l-10.5.63c.36,3.79.35,7.7.35,11.48-5.32.31-10.68.85-15.57,1.06l.21,10.71h-.65s-.27-11.41-.27-11.41c5.1-.19,10.21-.65,15.57-.99.01-3.91-.01-7.53-.35-11.55l11.98-.7Z"/>
    <path d="M571.46,387.23l-6.13.7-7.04-3.52v-.76s.63-.01.63-.01c4.61-.56,9.64-1.2,14.37-1.55-2.01,12.01-8.08,22.79-19.72,27.76l-.43.42-.69-.7c10.27-4.63,16-12.1,19.02-22.33Z"/>
    <path d="M545.11,406.88l-7.11,10.99-6.41-3.1-.7-1.55,6.2-9.65c-1.59-1.37-3.33-2.64-5.18-3.77h0s.46-.74.46-.74c4.61,2.03,8.78,4.6,12.75,7.82Z"/>
    <path d="M544.83,372.15l-4.93,11.55c-3.59-2.03-8-3.62-12.12-4.51l.47.22-.33.69-9.23-3.59c-4.1,4.57-3.77,11.45-3.52,17.33-10.41-2.5-20.38,9.53-14.27,18.91.47.56,1.01,1.08,1.57,1.54l-.69.33c-.36.93-1.36,2.82-1.76,3.73l-16.7-10.92c4.34-7.11,7.22-13.89,10.07-21.98l-6.2-3.17-.49-12.05c3.9-.19,7.63-.47,11.55-.85.76-3.56,1.36-6.55,1.83-10.21l11.41.42,7.61,3.66c8.93,1.12,18,4.56,25.71,8.88ZM532.5,379.2l4.37-10.14c-4.95-2.07-11.81-4.1-17.33-4.93l-3.59,10c5.44.66,11.79,2.41,16.55,5.07ZM514.96,378l.21-10.57c-2.02.47-4.2.89-6.55,1.27.7-2.81,1.36-5.66,1.97-8.38l-9.93-.35c-.41,3.42-1.03,6.6-1.83,10.07-3.77.35-7.81.73-11.41.92l.42,10.64c2.58-.19,5.3-.56,7.96-.92-2.92,8.89-6.97,19.01-11.55,26.63l8.81,5.71c4.83-10.46,9.15-22.46,12.54-33.67,3.06-.45,6.36-.95,9.37-1.34ZM514.89,383.21l-1.69.28c-.95,3.26-2.07,6.41-3.17,9.65,1.41-.25,2.92-.16,4.37-.07-.29-3.25-.14-6.75.49-9.86Z"/>
    <path class="cls-1" d="M537.08,403.57l-6.2,9.65c-1.73-2.08-3.77-3.97-5.99-5.42-1.94,9.64-15.42,12.13-22.41,6.5-.56-.46-1.1-.97-1.57-1.54-6.12-9.38,3.85-21.42,14.27-18.91-.25-5.88-.58-12.76,3.52-17.33l9.23,3.59c-4.92,3.94-3.89,10.36-3.24,15.92,2.47,1.07,4.92,2.31,7.22,3.76h0c1.84,1.14,3.59,2.41,5.18,3.78ZM509.22,406.95c2.31,1.24,6.6.8,6.52-2.61v-.92c-2.63-1.24-10.83-.14-6.52,3.52Z"/>
    <path class="cls-1" d="M536.87,369.06l-4.37,10.14c-4.77-2.67-11.12-4.41-16.55-5.07l3.59-10c5.52.83,12.37,2.86,17.33,4.93Z"/>
    <path d="M528.25,379.42l8.12,3.93c-5.24,3.96-4.65,9.98-4.02,15.71l-.46.73c-2.3-1.44-4.76-2.69-7.22-3.76-.65-5.57-1.68-11.98,3.24-15.92l.33-.69Z"/>
    <path d="M530.88,413.22l.7,1.55c-5.65,9.39-23.58,8.03-29.8-.14l.69-.33c7,5.62,20.48,3.13,22.41-6.5,2.22,1.46,4.26,3.35,5.99,5.42Z"/>
    <path d="M515.74,404.35c.08,3.4-4.2,3.85-6.52,2.61-4.31-3.66,3.89-4.77,6.52-3.52v.92Z"/>
    <path class="cls-1" d="M515.17,367.44l-.21,10.57c-3.01.39-6.3.89-9.37,1.34-3.39,11.21-7.71,23.21-12.54,33.67l-8.81-5.71c4.58-7.62,8.63-17.74,11.55-26.63-2.67.35-5.38.73-7.96.92l-.42-10.64c3.6-.19,7.64-.56,11.41-.92.8-3.48,1.42-6.66,1.83-10.07l9.93.35c-.61,2.72-1.27,5.58-1.97,8.38,2.35-.38,4.53-.8,6.55-1.27Z"/>
  </g>
</svg>